<svg width="375" height="489" viewBox="0 0 375 489" fill="none" xmlns="http://www.w3.org/2000/svg">
<path fill-rule="evenodd" clip-rule="evenodd" d="M124.5 102.317C96 112.817 66.5 126.817 66.5 126.817C66.5 126.817 61.6771 104.266 58.5 78.3172C55.1513 50.9677 52.5109 19.494 51.4749 7.14587L51.4749 7.14533C51.1662 3.46576 51 1.48462 51 1.81719C51 2.7336 49.0075 6.51575 45.9331 12.3518C40.6203 22.4368 32.0765 38.6552 25 56.8172C14.4956 83.7771 7.68073 112.867 5.49999 122.317C1 141.817 1 192.317 1 192.317C1 192.317 1.99997 374.817 5.49999 400.817C9 426.817 28 487.817 28 487.817C28 487.817 35.5 381.317 40.5 381.317C45.5 381.317 174.5 439.817 174.5 439.817C179.667 440.484 191.7 441.417 198.5 439.817C202.415 438.896 230.198 426.519 259.568 413.434L259.57 413.433C293.963 398.11 330.533 381.817 333.5 381.817C337.277 381.817 341.054 429.68 343.535 461.128L343.535 461.131C344.668 475.478 345.53 486.408 346 487.817C346.753 490.076 359.635 440.817 362 428.317C363.297 421.46 364.831 409.835 366.362 398.234L366.362 398.234C367.621 388.688 368.878 379.159 370 372.317C370 348.487 370.957 323.71 371.931 298.511L371.931 298.51C374.946 220.473 378.117 138.387 353.5 67.8172C349.075 55.133 339.44 36.6612 331.968 22.3372C326.775 12.3818 322.627 4.42993 322 1.81719C320.378 -4.94297 317.731 31.4375 315.169 66.6692V66.6694C312.993 96.5834 310.878 125.669 309.5 126.817C308.568 127.594 304.306 125.234 297.765 121.611C283.249 113.573 257.506 99.3172 232 99.3172C221.079 99.3172 209.723 98.6638 198.407 98.0128L198.407 98.0127C171.383 96.458 144.588 94.9164 124.5 102.317ZM64.7146 336.011C64.8575 336.141 65.0035 336.274 65.1527 336.409C70.5412 341.301 80.141 350.017 95.5 354.817C113.629 360.483 130.414 360.507 149 358.817C165.5 357.317 173 331.317 165.5 325.317C158 319.317 59.6826 263.933 49 267.817C43.5 269.817 49 302.317 49 302.317C49 302.317 59.25 331.067 64.5 335.817C64.5707 335.881 64.6423 335.946 64.7146 336.011ZM307.761 336.604C307.986 336.4 308.204 336.202 308.414 336.012C313.664 331.262 323.914 302.512 323.914 302.512C323.914 302.512 329.414 270.012 323.914 268.012C313.231 264.128 214.914 319.512 207.414 325.512C199.914 331.512 207.414 357.512 223.914 359.012C242.5 360.702 259.285 360.678 277.414 355.012C292.773 350.212 302.373 341.496 307.761 336.604Z" fill="black"/>
<path d="M66.5 126.817L66.011 126.922L66.1432 127.54L66.7144 127.269L66.5 126.817ZM124.5 102.317L124.673 102.786L124.673 102.786L124.5 102.317ZM58.5 78.3172L58.0037 78.378L58.0037 78.378L58.5 78.3172ZM51.4749 7.14587L51.9732 7.10407L51.9732 7.10391L51.4749 7.14587ZM51.4749 7.14533L50.9766 7.18713L50.9766 7.18728L51.4749 7.14533ZM45.9331 12.3518L45.4908 12.1187L45.4908 12.1187L45.9331 12.3518ZM25 56.8172L25.4659 56.9987L25.4659 56.9987L25 56.8172ZM5.49999 122.317L5.98718 122.43L5.49999 122.317ZM1 192.317H0.499992L0.500008 192.32L1 192.317ZM28 487.817L27.5226 487.966L28.4988 487.852L28 487.817ZM174.5 439.817L174.293 440.273L174.362 440.304L174.436 440.313L174.5 439.817ZM198.5 439.817L198.615 440.304L198.615 440.304L198.5 439.817ZM259.568 413.434L259.368 412.975L259.364 412.977L259.568 413.434ZM259.57 413.433L259.769 413.891L259.773 413.89L259.57 413.433ZM343.535 461.128L343.037 461.167L343.037 461.169L343.535 461.128ZM343.535 461.131L344.034 461.092L344.034 461.09L343.535 461.131ZM346 487.817L346.474 487.659L346.474 487.659L346 487.817ZM362 428.317L361.509 428.224L361.509 428.224L362 428.317ZM366.362 398.234L366.857 398.3L366.858 398.296L366.362 398.234ZM366.362 398.234L365.866 398.168L365.866 398.172L366.362 398.234ZM370 372.317L370.493 372.398L370.5 372.358V372.317H370ZM371.931 298.511L371.432 298.478L371.431 298.492L371.931 298.511ZM371.931 298.51L372.43 298.543L372.43 298.529L371.931 298.51ZM353.5 67.8172L353.972 67.6525L353.972 67.6525L353.5 67.8172ZM331.968 22.3372L332.411 22.106L332.411 22.106L331.968 22.3372ZM322 1.81719L322.486 1.70051L322.486 1.70051L322 1.81719ZM315.169 66.6692L314.67 66.6329L314.669 66.651V66.6692H315.169ZM315.169 66.6694L315.668 66.7057L315.669 66.6876V66.6694H315.169ZM309.5 126.817L309.18 126.433L309.18 126.433L309.5 126.817ZM297.765 121.611L298.007 121.174L298.007 121.174L297.765 121.611ZM198.407 98.0128L198.345 98.5089L198.361 98.511L198.378 98.5119L198.407 98.0128ZM198.407 98.0127L198.469 97.5166L198.452 97.5145L198.435 97.5136L198.407 98.0127ZM65.1527 336.409L65.4888 336.039L65.4888 336.039L65.1527 336.409ZM64.7146 336.011L65.0505 335.641L65.0505 335.641L64.7146 336.011ZM95.5 354.817L95.3508 355.294L95.3508 355.294L95.5 354.817ZM149 358.817L148.955 358.319L148.955 358.319L149 358.817ZM165.5 325.317L165.812 324.927L165.812 324.927L165.5 325.317ZM49 267.817L48.8291 267.347L48.8291 267.347L49 267.817ZM49 302.317L48.507 302.4L48.5143 302.444L48.529 302.485L49 302.317ZM64.5 335.817L64.1645 336.188L64.1645 336.188L64.5 335.817ZM308.414 336.012L308.079 335.641L308.079 335.641L308.414 336.012ZM307.761 336.604L308.097 336.974L308.097 336.974L307.761 336.604ZM323.914 302.512L324.385 302.68L324.4 302.639L324.407 302.596L323.914 302.512ZM323.914 268.012L324.085 267.542L324.085 267.542L323.914 268.012ZM207.414 325.512L207.102 325.122L207.102 325.122L207.414 325.512ZM223.914 359.012L223.959 358.514L223.959 358.514L223.914 359.012ZM277.414 355.012L277.563 355.489L277.563 355.489L277.414 355.012ZM66.5 126.817C66.7144 127.269 66.7145 127.269 66.7147 127.269C66.7149 127.269 66.7152 127.269 66.7156 127.268C66.7165 127.268 66.7178 127.267 66.7196 127.266C66.7231 127.265 66.7285 127.262 66.7355 127.259C66.7497 127.252 66.771 127.242 66.7993 127.229C66.8557 127.202 66.9401 127.162 67.0514 127.11C67.274 127.005 67.6044 126.849 68.0351 126.648C68.8965 126.245 70.1592 125.658 71.7636 124.92C74.9724 123.444 79.548 121.367 85.0139 118.962C95.9466 114.152 110.436 108.031 124.673 102.786L124.327 101.848C110.064 107.103 95.5533 113.232 84.6111 118.047C79.1394 120.455 74.5588 122.534 71.3458 124.011C69.7393 124.75 68.4746 125.338 67.6114 125.742C67.1798 125.944 66.8485 126.1 66.6251 126.205C66.5134 126.258 66.4286 126.298 66.3717 126.325C66.3433 126.338 66.3218 126.348 66.3074 126.355C66.3002 126.359 66.2948 126.361 66.2911 126.363C66.2893 126.364 66.288 126.364 66.287 126.365C66.2866 126.365 66.2862 126.365 66.286 126.365C66.2857 126.365 66.2856 126.365 66.5 126.817ZM58.0037 78.378C59.5937 91.3643 61.5954 103.499 63.1994 112.387C64.0014 116.831 64.7041 120.464 65.2064 122.986C65.4575 124.247 65.6586 125.23 65.7969 125.899C65.8661 126.233 65.9196 126.489 65.9558 126.661C65.9739 126.747 65.9877 126.812 65.9969 126.856C66.0016 126.877 66.0051 126.894 66.0075 126.905C66.0086 126.91 66.0095 126.915 66.0101 126.917C66.0104 126.919 66.0106 126.92 66.0108 126.921C66.0109 126.921 66.0109 126.921 66.011 126.921C66.011 126.922 66.011 126.922 66.5 126.817C66.9889 126.713 66.9889 126.713 66.9889 126.712C66.9888 126.712 66.9888 126.712 66.9887 126.712C66.9886 126.711 66.9884 126.71 66.9881 126.709C66.9875 126.706 66.9867 126.702 66.9855 126.697C66.9832 126.686 66.9797 126.67 66.9752 126.648C66.966 126.605 66.9523 126.54 66.9343 126.455C66.8983 126.284 66.8451 126.029 66.7762 125.696C66.6383 125.03 66.4378 124.049 66.1871 122.79C65.6859 120.273 64.9843 116.646 64.1835 112.209C62.5817 103.334 60.5833 91.2185 58.9963 78.2564L58.0037 78.378ZM50.9767 7.18767C52.0125 19.5349 54.6537 51.0177 58.0037 78.378L58.9963 78.2564C55.6489 50.9178 53.0092 19.4532 51.9732 7.10407L50.9767 7.18767ZM50.9766 7.18728L50.9767 7.18783L51.9732 7.10391L51.9731 7.10337L50.9766 7.18728ZM51.5 1.81719C51.5 1.81024 51.5001 1.81264 51.4997 1.82022C51.4995 1.82351 51.4989 1.83531 51.4967 1.8514C51.4957 1.85949 51.4935 1.87394 51.4895 1.89193C51.4864 1.90599 51.4777 1.9432 51.4575 1.98773C51.4495 2.00556 51.3847 2.1591 51.2041 2.23869C50.9391 2.35545 50.7267 2.2103 50.6539 2.13924C50.5887 2.07563 50.5582 2.01015 50.5509 1.99458C50.539 1.96909 50.5319 1.94813 50.5285 1.93783C50.5217 1.91665 50.5182 1.90048 50.5173 1.89636C50.5159 1.89015 50.5153 1.88615 50.5152 1.8856C50.515 1.88454 50.5155 1.88743 50.5167 1.89618C50.5178 1.90434 50.5192 1.91533 50.5209 1.92955C50.5243 1.95803 50.5285 1.99586 50.5335 2.04363C50.5534 2.23559 50.5835 2.56332 50.6236 3.02039C50.7036 3.93286 50.8222 5.34684 50.9766 7.18713L51.9731 7.10353C51.8188 5.26424 51.7 3.84787 51.6198 2.93302C51.5797 2.47644 51.549 2.14127 51.5281 1.94032C51.5184 1.84654 51.509 1.76375 51.5003 1.71387C51.499 1.70633 51.493 1.67019 51.4801 1.63048C51.4763 1.61868 51.4688 1.5965 51.4564 1.57006C51.4486 1.55355 51.4178 1.4874 51.3521 1.4234C51.2789 1.35194 51.0662 1.20667 50.8008 1.3236C50.6198 1.40334 50.5547 1.55733 50.5463 1.57587C50.5127 1.65012 50.5058 1.71705 50.5054 1.71983C50.5028 1.73958 50.5017 1.75615 50.5012 1.76533C50.5002 1.78469 50.5 1.80336 50.5 1.81719H51.5ZM46.3755 12.5848C47.9114 9.66937 49.1818 7.25779 50.0679 5.46075C50.5107 4.5627 50.862 3.80926 51.1035 3.21828C51.2242 2.92297 51.3205 2.66073 51.3875 2.43668C51.4516 2.22177 51.5 2.00613 51.5 1.81719H50.5C50.5 1.85736 50.4861 1.96038 50.4293 2.1505C50.3752 2.33149 50.2919 2.56068 50.1778 2.83999C49.9496 3.39829 49.6106 4.12696 49.171 5.01851C48.2923 6.80065 47.0293 9.19815 45.4908 12.1187L46.3755 12.5848ZM25.4659 56.9987C32.5309 38.8661 41.0624 22.6703 46.3755 12.5848L45.4908 12.1187C40.1782 22.2033 31.622 38.4443 24.5341 56.6357L25.4659 56.9987ZM5.98718 122.43C8.16749 112.982 14.9757 83.9221 25.4659 56.9987L24.5341 56.6357C14.0155 83.6321 7.19398 112.753 5.01279 122.205L5.98718 122.43ZM1 192.317C1.5 192.317 1.5 192.317 1.5 192.317C1.5 192.316 1.5 192.316 1.5 192.315C1.5 192.313 1.5 192.311 1.5 192.308C1.5 192.302 1.50001 192.293 1.50002 192.281C1.50003 192.257 1.50007 192.22 1.50014 192.172C1.50027 192.077 1.50055 191.934 1.5011 191.747C1.50219 191.373 1.50439 190.821 1.50878 190.112C1.51756 188.694 1.53513 186.647 1.57026 184.129C1.64054 179.093 1.78109 172.175 2.06215 164.648C2.62496 149.578 3.74967 132.126 5.98718 122.43L5.01279 122.205C2.75032 132.009 1.62504 149.557 1.06285 164.611C0.781413 172.147 0.640711 179.073 0.570361 184.115C0.535185 186.636 0.517595 188.686 0.508799 190.106C0.504401 190.816 0.502201 191.369 0.501101 191.744C0.500551 191.931 0.500276 192.075 0.500138 192.171C0.500069 192.219 0.500035 192.256 0.500017 192.28C0.500009 192.292 0.500004 192.302 0.500002 192.308C0.500001 192.311 0.500001 192.313 0.5 192.315C0.5 192.316 0.5 192.316 0.5 192.317C0.5 192.317 0.5 192.317 1 192.317ZM5.99552 400.751C5.12487 394.283 4.40634 378.033 3.82009 357.256C3.23426 336.494 2.78117 311.247 2.43744 286.81C2.09371 262.374 1.85935 238.75 1.71092 221.235C1.6367 212.477 1.58397 205.247 1.54979 200.206C1.5327 197.686 1.52025 195.713 1.51208 194.37C1.50799 193.699 1.50497 193.185 1.50297 192.839C1.50197 192.666 1.50122 192.535 1.50073 192.447C1.50048 192.403 1.5003 192.37 1.50018 192.348C1.50011 192.337 1.50007 192.328 1.50004 192.323C1.50002 192.32 1.50001 192.318 1.5 192.317C1.5 192.315 1.49999 192.314 1 192.317C0.500008 192.32 0.500011 192.321 0.500019 192.322C0.500027 192.323 0.500038 192.326 0.500053 192.328C0.500084 192.334 0.50013 192.342 0.500192 192.353C0.500314 192.375 0.500499 192.408 0.500746 192.452C0.50124 192.54 0.501984 192.671 0.502984 192.844C0.504983 193.191 0.508004 193.705 0.512094 194.376C0.520273 195.719 0.532725 197.693 0.549815 200.213C0.583995 205.254 0.636731 212.485 0.710951 221.243C0.859391 238.76 1.09377 262.386 1.43754 286.824C1.7813 311.263 2.23446 336.515 2.82049 357.285C3.40612 378.039 4.12509 394.352 5.00445 400.884L5.99552 400.751ZM28 487.817C28.4774 487.669 28.4773 487.668 28.4772 487.668C28.477 487.667 28.4768 487.667 28.4765 487.666C28.476 487.664 28.4751 487.661 28.474 487.658C28.4717 487.65 28.4682 487.639 28.4637 487.624C28.4546 487.595 28.4409 487.551 28.4229 487.493C28.3869 487.377 28.3334 487.205 28.2635 486.978C28.1236 486.525 27.9179 485.858 27.6548 484.999C27.1287 483.281 26.3732 480.798 25.4555 477.736C23.6202 471.613 21.1367 463.179 18.5439 453.932C13.355 435.427 7.74011 413.71 5.99552 400.751L5.00445 400.884C6.75988 413.924 12.395 435.707 17.5811 454.202C20.1758 463.456 22.6611 471.896 24.4976 478.023C25.4159 481.087 26.1721 483.572 26.6987 485.292C26.962 486.152 27.1679 486.82 27.3081 487.273C27.3781 487.5 27.4317 487.673 27.4678 487.79C27.4859 487.848 27.4996 487.892 27.5088 487.921C27.5133 487.936 27.5168 487.947 27.5191 487.955C27.5203 487.958 27.5211 487.961 27.5217 487.963C27.522 487.964 27.5222 487.965 27.5224 487.965C27.5225 487.966 27.5226 487.966 28 487.817ZM40.5 380.817C40.1116 380.817 39.8244 381.072 39.6334 381.311C39.4311 381.564 39.2471 381.911 39.0751 382.319C38.7287 383.138 38.3842 384.315 38.0406 385.779C37.3516 388.714 36.646 392.892 35.9424 397.888C34.5345 407.884 33.1273 421.206 31.8772 434.52C30.6269 447.836 29.5329 461.152 28.7515 471.138C28.3608 476.131 28.0483 480.292 27.8334 483.204C27.7259 484.661 27.6429 485.805 27.5867 486.585C27.5587 486.975 27.5373 487.275 27.5229 487.476C27.5158 487.577 27.5103 487.653 27.5067 487.705C27.5049 487.73 27.5035 487.75 27.5026 487.763C27.5022 487.769 27.5018 487.774 27.5016 487.777C27.5015 487.779 27.5014 487.78 27.5013 487.781C27.5013 487.782 27.5012 487.782 28 487.817C28.4988 487.852 28.4988 487.852 28.4988 487.851C28.4989 487.85 28.499 487.849 28.4991 487.848C28.4993 487.844 28.4997 487.839 28.5001 487.833C28.501 487.82 28.5024 487.801 28.5042 487.775C28.5078 487.724 28.5132 487.648 28.5204 487.547C28.5347 487.346 28.5561 487.047 28.5842 486.657C28.6403 485.877 28.7233 484.734 28.8307 483.278C29.0455 480.366 29.3579 476.207 29.7485 471.216C30.5296 461.233 31.6231 447.923 32.8728 434.614C34.1226 421.303 35.528 408 36.9326 398.028C37.6352 393.039 38.3358 388.897 39.0141 386.008C39.3541 384.559 39.6834 383.448 39.9962 382.708C40.1537 382.335 40.2957 382.084 40.415 381.935C40.5457 381.771 40.5758 381.817 40.5 381.817V380.817ZM174.5 439.817C174.706 439.362 174.706 439.362 174.705 439.361C174.704 439.361 174.703 439.36 174.701 439.359C174.697 439.357 174.691 439.355 174.683 439.351C174.667 439.344 174.644 439.334 174.613 439.319C174.551 439.291 174.458 439.249 174.336 439.194C174.092 439.083 173.729 438.919 173.256 438.705C172.31 438.276 170.922 437.648 169.153 436.848C165.616 435.248 160.557 432.963 154.471 430.221C142.299 424.736 126.017 417.423 109.578 410.11C93.1402 402.798 76.5439 395.484 63.7438 389.998C57.3443 387.256 51.8905 384.968 47.8788 383.367C45.8735 382.566 44.2239 381.934 42.9946 381.502C42.3804 381.287 41.8655 381.119 41.4606 381.004C41.0759 380.895 40.7352 380.817 40.5 380.817V381.817C40.5772 381.817 40.7912 381.854 41.188 381.966C41.5646 382.073 42.0578 382.233 42.6631 382.446C43.8728 382.871 45.5073 383.496 47.5079 384.295C51.5079 385.892 56.9526 388.176 63.3499 390.917C76.1436 396.4 92.7348 403.712 109.172 411.024C125.608 418.336 141.889 425.648 154.06 431.132C160.146 433.875 165.204 436.16 168.741 437.759C170.51 438.559 171.898 439.187 172.844 439.616C173.317 439.83 173.679 439.994 173.923 440.105C174.045 440.16 174.138 440.202 174.2 440.23C174.231 440.244 174.254 440.255 174.27 440.262C174.278 440.266 174.284 440.268 174.288 440.27C174.29 440.271 174.291 440.272 174.292 440.272C174.293 440.272 174.293 440.273 174.5 439.817ZM198.385 439.331C195.051 440.115 190.396 440.284 185.9 440.167C181.415 440.051 177.132 439.653 174.564 439.321L174.436 440.313C177.035 440.648 181.352 441.05 185.875 441.167C190.387 441.284 195.149 441.119 198.615 440.304L198.385 439.331ZM259.364 412.977C244.678 419.52 230.392 425.884 219.288 430.729C213.736 433.151 208.982 435.192 205.372 436.684C201.741 438.185 199.315 439.112 198.385 439.331L198.615 440.304C199.642 440.062 202.157 439.096 205.754 437.608C209.373 436.112 214.134 434.068 219.688 431.645C230.797 426.799 245.087 420.433 259.771 413.89L259.364 412.977ZM259.37 412.974L259.368 412.975L259.767 413.892L259.769 413.891L259.37 412.974ZM333.5 381.317C333.237 381.317 332.86 381.4 332.424 381.523C331.97 381.65 331.396 381.836 330.716 382.076C329.355 382.555 327.54 383.254 325.346 384.139C320.957 385.908 315.028 388.425 308.121 391.42C294.306 397.41 276.562 405.315 259.366 412.976L259.773 413.89C276.971 406.228 294.709 398.325 308.519 392.338C315.424 389.344 321.344 386.83 325.72 385.066C327.909 384.184 329.708 383.491 331.048 383.019C331.719 382.783 332.269 382.604 332.694 382.485C333.136 382.361 333.392 382.317 333.5 382.317V381.317ZM344.034 461.088C342.793 445.366 341.228 425.531 339.5 409.625C338.637 401.675 337.731 394.694 336.804 389.696C336.341 387.2 335.868 385.179 335.387 383.773C335.147 383.074 334.895 382.498 334.625 382.088C334.376 381.709 334.01 381.317 333.5 381.317V382.317C333.462 382.317 333.568 382.299 333.79 382.637C333.992 382.943 334.211 383.427 334.441 384.097C334.898 385.432 335.36 387.395 335.821 389.878C336.741 394.838 337.643 401.788 338.506 409.733C340.232 425.621 341.796 445.441 343.037 461.167L344.034 461.088ZM344.034 461.09L344.033 461.086L343.037 461.169L343.037 461.173L344.034 461.09ZM346.474 487.659C346.431 487.529 346.371 487.243 346.3 486.779C346.23 486.326 346.155 485.734 346.073 485.014C345.909 483.573 345.722 481.631 345.514 479.281C345.098 474.582 344.6 468.266 344.034 461.092L343.037 461.17C343.603 468.343 344.102 474.665 344.518 479.37C344.726 481.722 344.914 483.673 345.079 485.127C345.162 485.853 345.239 486.459 345.311 486.93C345.382 487.389 345.452 487.753 345.526 487.975L346.474 487.659ZM361.509 428.224C360.33 434.454 356.523 449.877 352.912 463.473C351.107 470.269 349.354 476.599 348.006 481.087C347.331 483.333 346.761 485.108 346.338 486.248C346.124 486.825 345.957 487.21 345.843 487.411C345.816 487.46 345.797 487.487 345.788 487.498C345.773 487.518 345.794 487.484 345.852 487.45C345.925 487.407 346.108 487.342 346.3 487.456C346.375 487.501 346.418 487.556 346.44 487.59C346.462 487.624 346.471 487.65 346.474 487.659L345.526 487.975C345.548 488.044 345.613 488.211 345.788 488.315C346.015 488.45 346.239 488.382 346.359 488.312C346.464 488.25 346.536 488.165 346.579 488.11C346.627 488.048 346.672 487.977 346.712 487.906C346.871 487.627 347.061 487.174 347.275 486.596C347.71 485.425 348.288 483.624 348.964 481.375C350.317 476.872 352.073 470.529 353.878 463.73C357.488 450.137 361.305 434.681 362.491 428.41L361.509 428.224ZM365.866 398.169C364.335 409.777 362.803 421.384 361.509 428.224L362.491 428.41C363.792 421.536 365.328 409.893 366.857 398.3L365.866 398.169ZM365.866 398.172L365.866 398.172L366.858 398.296L366.858 398.296L365.866 398.172ZM369.507 372.236C368.383 379.087 367.125 388.625 365.866 398.168L366.857 398.299C368.117 388.75 369.373 379.23 370.493 372.398L369.507 372.236ZM371.431 298.492C370.458 323.689 369.5 348.475 369.5 372.317H370.5C370.5 348.498 371.457 323.731 372.43 298.531L371.431 298.492ZM371.432 298.477L371.432 298.478L372.43 298.545L372.43 298.543L371.432 298.477ZM353.028 67.9819C377.608 138.445 374.447 220.431 371.431 298.491L372.43 298.529C375.445 220.515 378.626 138.328 353.972 67.6525L353.028 67.9819ZM331.525 22.5685C339.004 36.9062 348.618 55.3402 353.028 67.9819L353.972 67.6525C349.532 54.9258 339.876 36.4163 332.411 22.106L331.525 22.5685ZM321.514 1.93388C321.682 2.63462 322.075 3.65735 322.634 4.9271C323.197 6.20569 323.94 7.76348 324.824 9.54579C326.591 13.1104 328.929 17.5924 331.525 22.5685L332.411 22.106C329.814 17.1266 327.481 12.655 325.72 9.1016C324.839 7.32493 324.103 5.78265 323.549 4.52432C322.992 3.25716 322.631 2.30614 322.486 1.70051L321.514 1.93388ZM315.668 66.7055C316.949 49.0875 318.251 31.1905 319.435 18.5428C320.027 12.215 320.589 7.21778 321.101 4.22843C321.229 3.48207 321.353 2.86831 321.472 2.39404C321.594 1.90687 321.701 1.60767 321.782 1.46161C321.829 1.37721 321.827 1.41941 321.748 1.46041C321.695 1.48822 321.614 1.5103 321.521 1.49506C321.433 1.48068 321.377 1.44014 321.353 1.41933C321.319 1.3895 321.338 1.38927 321.382 1.49828C321.422 1.59383 321.466 1.73577 321.514 1.93388L322.486 1.70051C322.432 1.4761 322.374 1.2798 322.307 1.11865C322.247 0.970965 322.158 0.795594 322.015 0.669478C321.937 0.600526 321.826 0.531552 321.682 0.508117C321.533 0.483822 321.396 0.516226 321.287 0.573395C321.095 0.673105 320.978 0.850168 320.909 0.974083C320.758 1.24464 320.626 1.65585 320.502 2.15124C320.374 2.65954 320.246 3.30051 320.116 4.05941C319.596 7.09108 319.031 12.1235 318.439 18.4496C317.254 31.1101 315.951 49.0192 314.67 66.6329L315.668 66.7055ZM315.669 66.6694V66.6692H314.669V66.6694H315.669ZM309.82 127.201C309.944 127.098 310.025 126.96 310.079 126.851C310.139 126.731 310.192 126.59 310.242 126.435C310.343 126.125 310.441 125.718 310.54 125.229C310.737 124.247 310.943 122.886 311.157 121.204C311.584 117.839 312.047 113.153 312.533 107.574C313.507 96.4154 314.58 81.6614 315.668 66.7057L314.67 66.6331C313.582 81.5915 312.51 96.3373 311.537 107.487C311.051 113.063 310.59 117.733 310.165 121.078C309.952 122.753 309.75 124.086 309.56 125.031C309.464 125.506 309.374 125.87 309.291 126.127C309.249 126.256 309.213 126.347 309.183 126.406C309.149 126.476 309.142 126.464 309.18 126.433L309.82 127.201ZM297.522 122.049C300.787 123.857 303.505 125.362 305.522 126.316C306.529 126.792 307.386 127.143 308.064 127.324C308.403 127.414 308.72 127.469 309.003 127.465C309.282 127.462 309.581 127.4 309.82 127.201L309.18 126.433C309.186 126.428 309.148 126.463 308.99 126.465C308.835 126.467 308.616 126.436 308.322 126.358C307.734 126.201 306.943 125.882 305.95 125.412C303.968 124.475 301.284 122.989 298.007 121.174L297.522 122.049ZM232 99.8172C257.355 99.8172 282.985 113.999 297.522 122.049L298.007 121.174C283.512 113.147 257.656 98.8172 232 98.8172V99.8172ZM198.378 98.5119C209.691 99.1628 221.062 99.8172 232 99.8172V98.8172C221.096 98.8172 209.755 98.1648 198.435 97.5136L198.378 98.5119ZM198.345 98.5089L198.345 98.5089L198.469 97.5166L198.469 97.5166L198.345 98.5089ZM124.673 102.786C134.644 99.1129 146.303 97.6511 158.866 97.3064C171.429 96.9618 184.861 97.7343 198.378 98.5119L198.435 97.5136C184.928 96.7365 171.452 95.9608 158.839 96.3068C146.227 96.6528 134.444 98.1206 124.327 101.848L124.673 102.786ZM65.4888 336.039C65.3396 335.903 65.1934 335.771 65.0505 335.641L64.3788 336.382C64.5215 336.511 64.6674 336.644 64.8166 336.779L65.4888 336.039ZM95.6491 354.34C80.4006 349.574 70.8688 340.923 65.4888 336.039L64.8166 336.779C70.2136 341.679 79.8813 350.46 95.3508 355.294L95.6491 354.34ZM148.955 358.319C130.397 360.006 113.688 359.977 95.6491 354.34L95.3508 355.294C113.571 360.988 130.431 361.007 149.045 359.315L148.955 358.319ZM165.188 325.707C166.895 327.073 167.814 329.642 167.906 332.886C167.998 336.111 167.265 339.901 165.786 343.568C162.819 350.924 156.936 357.594 148.955 358.319L149.045 359.315C157.564 358.541 163.681 351.46 166.714 343.942C168.235 340.17 169.002 336.242 168.906 332.858C168.811 329.492 167.855 326.561 165.812 324.927L165.188 325.707ZM49.1708 268.287C49.7157 268.089 50.6209 268.06 51.9132 268.251C53.1865 268.44 54.7669 268.831 56.6173 269.404C60.3165 270.55 65.043 272.41 70.4548 274.777C81.2754 279.51 94.7888 286.25 108.211 293.303C121.631 300.355 134.953 307.716 145.387 313.689C150.604 316.675 155.097 319.314 158.519 321.392C161.954 323.477 164.28 324.982 165.188 325.707L165.812 324.927C164.845 324.152 162.458 322.613 159.038 320.537C155.607 318.453 151.105 315.81 145.883 312.821C135.44 306.843 122.108 299.476 108.676 292.418C95.246 285.36 81.7083 278.608 70.8555 273.861C65.4306 271.488 60.6648 269.611 56.9133 268.449C55.0383 267.868 53.4037 267.461 52.0596 267.262C50.7343 267.066 49.6196 267.06 48.8291 267.347L49.1708 268.287ZM49 302.317C49.493 302.234 49.493 302.234 49.4929 302.233C49.4929 302.233 49.4928 302.233 49.4927 302.232C49.4926 302.231 49.4923 302.23 49.492 302.228C49.4914 302.224 49.4904 302.218 49.4891 302.211C49.4865 302.195 49.4827 302.172 49.4776 302.142C49.4674 302.081 49.4524 301.99 49.433 301.871C49.3942 301.633 49.338 301.284 49.2684 300.839C49.1291 299.949 48.9361 298.674 48.7217 297.139C48.2928 294.066 47.7785 289.951 47.4358 285.776C47.0927 281.596 46.9235 277.378 47.1782 274.09C47.3057 272.443 47.5377 271.059 47.8931 270.038C48.2564 268.994 48.7039 268.457 49.1708 268.287L48.8291 267.347C47.9211 267.677 47.3373 268.593 46.9487 269.709C46.5521 270.849 46.3114 272.331 46.1812 274.013C45.9202 277.381 46.0948 281.663 46.4391 285.858C46.7839 290.058 47.3009 294.193 47.7313 297.277C47.9466 298.819 48.1404 300.099 48.2804 300.994C48.3504 301.441 48.407 301.793 48.4461 302.032C48.4656 302.152 48.4808 302.244 48.4911 302.306C48.4963 302.337 48.5002 302.36 48.5029 302.376C48.5042 302.384 48.5052 302.39 48.5059 302.394C48.5063 302.396 48.5065 302.398 48.5067 302.399C48.5068 302.399 48.5069 302.4 48.5069 302.4C48.507 302.4 48.507 302.4 49 302.317ZM64.8354 335.446C64.2308 334.899 63.5255 333.977 62.7495 332.747C61.9783 331.525 61.1551 330.027 60.3095 328.353C58.6185 325.006 56.8506 320.98 55.2433 317.095C53.6366 313.211 52.1933 309.474 51.1515 306.707C50.6307 305.324 50.2103 304.184 49.9203 303.39C49.7753 302.993 49.6629 302.683 49.5867 302.471C49.5487 302.366 49.5197 302.285 49.5002 302.231C49.4905 302.204 49.4831 302.183 49.4782 302.17C49.4758 302.163 49.474 302.158 49.4727 302.154C49.4721 302.152 49.4717 302.151 49.4714 302.15C49.4712 302.15 49.4711 302.15 49.471 302.149C49.471 302.149 49.4709 302.149 49 302.317C48.529 302.485 48.5291 302.485 48.5291 302.485C48.5292 302.486 48.5294 302.486 48.5295 302.486C48.5298 302.487 48.5303 302.489 48.531 302.49C48.5322 302.494 48.5341 302.499 48.5366 302.506C48.5416 302.52 48.549 302.541 48.5589 302.568C48.5785 302.623 48.6077 302.705 48.646 302.811C48.7226 303.023 48.8355 303.335 48.981 303.733C49.272 304.53 49.6935 305.673 50.2156 307.06C51.2598 309.832 52.7071 313.58 54.3192 317.477C55.9306 321.373 57.7096 325.425 59.417 328.804C60.2706 330.494 61.1095 332.022 61.9037 333.281C62.6932 334.532 63.4567 335.547 64.1645 336.188L64.8354 335.446ZM65.0505 335.641C64.978 335.575 64.9063 335.51 64.8354 335.446L64.1645 336.188C64.2351 336.252 64.3065 336.316 64.3788 336.382L65.0505 335.641ZM308.079 335.641C307.868 335.832 307.65 336.03 307.425 336.234L308.097 336.974C308.322 336.77 308.54 336.573 308.75 336.383L308.079 335.641ZM323.914 302.512C323.443 302.344 323.443 302.344 323.443 302.344C323.443 302.345 323.443 302.345 323.443 302.345C323.442 302.346 323.442 302.348 323.441 302.349C323.44 302.353 323.438 302.358 323.436 302.365C323.431 302.378 323.424 302.399 323.414 302.426C323.394 302.48 323.365 302.561 323.327 302.667C323.251 302.878 323.139 303.188 322.994 303.585C322.704 304.379 322.283 305.519 321.763 306.902C320.721 309.669 319.277 313.406 317.671 317.29C316.063 321.175 314.296 325.201 312.605 328.548C311.759 330.222 310.936 331.72 310.165 332.942C309.389 334.172 308.683 335.094 308.079 335.641L308.75 336.383C309.457 335.742 310.221 334.727 311.01 333.476C311.804 332.217 312.643 330.689 313.497 328.999C315.204 325.62 316.983 321.568 318.595 317.672C320.207 313.775 321.654 310.027 322.698 307.255C323.221 305.868 323.642 304.725 323.933 303.928C324.079 303.53 324.191 303.218 324.268 303.006C324.306 302.9 324.336 302.818 324.355 302.763C324.365 302.736 324.372 302.715 324.377 302.701C324.38 302.694 324.382 302.689 324.383 302.685C324.384 302.684 324.384 302.682 324.385 302.681C324.385 302.681 324.385 302.681 324.385 302.68C324.385 302.68 324.385 302.68 323.914 302.512ZM323.743 268.482C324.21 268.652 324.658 269.189 325.021 270.233C325.376 271.254 325.608 272.638 325.736 274.285C325.991 277.573 325.821 281.791 325.478 285.971C325.136 290.146 324.621 294.261 324.192 297.334C323.978 298.87 323.785 300.144 323.646 301.034C323.576 301.48 323.52 301.829 323.481 302.066C323.462 302.185 323.447 302.276 323.436 302.337C323.431 302.367 323.428 302.39 323.425 302.406C323.424 302.413 323.423 302.419 323.422 302.423C323.422 302.425 323.421 302.426 323.421 302.427C323.421 302.428 323.421 302.428 323.421 302.428C323.421 302.429 323.421 302.429 323.914 302.512C324.407 302.596 324.407 302.595 324.407 302.595C324.407 302.595 324.407 302.594 324.407 302.594C324.408 302.593 324.408 302.591 324.408 302.589C324.409 302.585 324.41 302.579 324.411 302.571C324.414 302.555 324.418 302.532 324.423 302.501C324.433 302.439 324.448 302.347 324.468 302.227C324.507 301.988 324.564 301.636 324.634 301.189C324.774 300.294 324.967 299.014 325.183 297.472C325.613 294.388 326.13 290.253 326.475 286.053C326.819 281.858 326.994 277.576 326.733 274.208C326.603 272.526 326.362 271.044 325.965 269.904C325.577 268.788 324.993 267.872 324.085 267.542L323.743 268.482ZM207.726 325.902C208.634 325.177 210.96 323.673 214.395 321.587C217.817 319.509 222.31 316.87 227.527 313.884C237.961 307.911 251.283 300.55 264.703 293.498C278.125 286.445 291.639 279.705 302.459 274.972C307.871 272.605 312.598 270.745 316.297 269.599C318.147 269.026 319.728 268.635 321.001 268.446C322.293 268.255 323.198 268.284 323.743 268.482L324.085 267.542C323.294 267.255 322.18 267.261 320.854 267.457C319.51 267.656 317.876 268.063 316.001 268.644C312.249 269.806 307.483 271.683 302.059 274.056C291.206 278.803 277.668 285.555 264.238 292.613C250.806 299.671 237.474 307.038 227.031 313.016C221.809 316.005 217.307 318.648 213.876 320.732C210.456 322.808 208.07 324.347 207.102 325.122L207.726 325.902ZM223.959 358.514C215.978 357.789 210.095 351.119 207.128 343.763C205.649 340.097 204.916 336.306 205.008 333.081C205.1 329.837 206.02 327.268 207.726 325.902L207.102 325.122C205.059 326.756 204.104 329.687 204.008 333.053C203.912 336.437 204.679 340.365 206.2 344.137C209.233 351.655 215.35 358.736 223.869 359.51L223.959 358.514ZM277.265 354.535C259.226 360.172 242.517 360.201 223.959 358.514L223.869 359.51C242.483 361.202 259.343 361.183 277.563 355.489L277.265 354.535ZM307.425 336.234C302.045 341.119 292.513 349.77 277.265 354.535L277.563 355.489C293.033 350.655 302.7 341.874 308.097 336.974L307.425 336.234Z" fill="black"/>
</svg>
